<svg width="126" height="43" viewBox="0 0 126 43" fill="none" xmlns="http://www.w3.org/2000/svg">
<path d="M22.3918 37.36V42H1.91784V37.36H9.80584V5.75C9.38051 6.33 8.62651 7.026 7.54384 7.838C6.49984 8.61133 5.33984 9.288 4.06384 9.868C2.78784 10.448 1.62784 10.738 0.583844 10.738V5.982C1.62784 5.982 2.67184 5.71133 3.71584 5.17C4.79851 4.62866 5.78451 3.99066 6.67384 3.256C7.60184 2.52133 8.33651 1.864 8.87784 1.284C9.45784 0.703999 9.76718 0.394665 9.80584 0.355997H15.0258V37.36H22.3918ZM43.7014 42.58C40.8787 42.5027 38.3847 41.826 36.2194 40.55C34.0541 39.274 32.2367 37.6113 30.7674 35.562C29.3367 33.474 28.2541 31.2313 27.5194 28.834C26.7847 26.398 26.4174 24.02 26.4174 21.7C26.4174 19.2253 26.8041 16.7507 27.5774 14.276C28.3894 11.8013 29.5494 9.55866 31.0574 7.548C32.5654 5.49867 34.3827 3.87467 36.5094 2.676C38.6361 1.43866 41.0334 0.819998 43.7014 0.819998C46.5627 0.819998 49.0567 1.47733 51.1834 2.792C53.3487 4.10666 55.1467 5.808 56.5774 7.896C58.0467 9.984 59.1487 12.246 59.8834 14.682C60.6181 17.118 60.9854 19.4573 60.9854 21.7C60.9854 24.2133 60.5794 26.7073 59.7674 29.182C58.9941 31.618 57.8534 33.8413 56.3454 35.852C54.8374 37.8627 53.0201 39.4867 50.8934 40.724C48.7667 41.9227 46.3694 42.5413 43.7014 42.58ZM31.6954 21.7C31.7727 23.5947 32.0627 25.4893 32.5654 27.384C33.0681 29.2787 33.8221 31.0187 34.8274 32.604C35.8327 34.1893 37.0701 35.4653 38.5394 36.432C40.0087 37.3987 41.7294 37.882 43.7014 37.882C45.7507 37.882 47.5294 37.3793 49.0374 36.374C50.5454 35.33 51.7827 33.996 52.7494 32.372C53.7547 30.7093 54.4894 28.95 54.9534 27.094C55.4561 25.1993 55.7074 23.4013 55.7074 21.7C55.7074 19.8053 55.4367 17.9107 54.8954 16.016C54.3927 14.1213 53.6194 12.3813 52.5754 10.796C51.5314 9.21066 50.2747 7.93466 48.8054 6.968C47.3361 6.00133 45.6347 5.518 43.7014 5.518C41.6521 5.518 39.8734 6.04 38.3654 7.084C36.8574 8.08933 35.6007 9.42333 34.5954 11.086C33.6287 12.71 32.8941 14.4693 32.3914 16.364C31.9274 18.22 31.6954 19.9987 31.6954 21.7ZM83.7463 42.58C80.9237 42.5027 78.4297 41.826 76.2643 40.55C74.099 39.274 72.2817 37.6113 70.8123 35.562C69.3817 33.474 68.299 31.2313 67.5643 28.834C66.8297 26.398 66.4623 24.02 66.4623 21.7C66.4623 19.2253 66.849 16.7507 67.6223 14.276C68.4343 11.8013 69.5943 9.55866 71.1023 7.548C72.6103 5.49867 74.4277 3.87467 76.5543 2.676C78.681 1.43866 81.0783 0.819998 83.7463 0.819998C86.6077 0.819998 89.1017 1.47733 91.2283 2.792C93.3937 4.10666 95.1917 5.808 96.6223 7.896C98.0917 9.984 99.1937 12.246 99.9283 14.682C100.663 17.118 101.03 19.4573 101.03 21.7C101.03 24.2133 100.624 26.7073 99.8123 29.182C99.039 31.618 97.8983 33.8413 96.3903 35.852C94.8823 37.8627 93.065 39.4867 90.9383 40.724C88.8117 41.9227 86.4143 42.5413 83.7463 42.58ZM71.7403 21.7C71.8177 23.5947 72.1077 25.4893 72.6103 27.384C73.113 29.2787 73.867 31.0187 74.8723 32.604C75.8777 34.1893 77.115 35.4653 78.5843 36.432C80.0537 37.3987 81.7743 37.882 83.7463 37.882C85.7957 37.882 87.5743 37.3793 89.0823 36.374C90.5903 35.33 91.8277 33.996 92.7943 32.372C93.7997 30.7093 94.5343 28.95 94.9983 27.094C95.501 25.1993 95.7523 23.4013 95.7523 21.7C95.7523 19.8053 95.4817 17.9107 94.9403 16.016C94.4377 14.1213 93.6643 12.3813 92.6203 10.796C91.5763 9.21066 90.3197 7.93466 88.8503 6.968C87.381 6.00133 85.6797 5.518 83.7463 5.518C81.697 5.518 79.9183 6.04 78.4103 7.084C76.9023 8.08933 75.6457 9.42333 74.6403 11.086C73.6737 12.71 72.939 14.4693 72.4363 16.364C71.9723 18.22 71.7403 19.9987 71.7403 21.7ZM125.009 19.322V23.498H118.165V30.922H113.525V23.498H106.681V19.322H113.525V11.898H118.165V19.322H125.009Z" fill="#10B582"/>
</svg>
