<svg width="54" height="43" viewBox="0 0 54 43" fill="none" xmlns="http://www.w3.org/2000/svg">
<path d="M22.3303 37.36V42H1.85632V37.36H9.74432V5.75C9.31899 6.33 8.56499 7.026 7.48232 7.838C6.43832 8.61133 5.27832 9.288 4.00232 9.868C2.72632 10.448 1.56632 10.738 0.52232 10.738V5.982C1.56632 5.982 2.61032 5.71133 3.65432 5.17C4.73699 4.62866 5.72299 3.99066 6.61232 3.256C7.54032 2.52133 8.27499 1.864 8.81632 1.284C9.39632 0.703999 9.70565 0.394665 9.74432 0.355997H14.9643V37.36H22.3303ZM39.1159 42.58C36.1772 42.58 33.5286 41.884 31.1699 40.492C28.8499 39.1 27.0712 37.2247 25.8339 34.866L29.0239 32.082C30.1065 33.8607 31.5372 35.2913 33.3159 36.374C35.1332 37.4567 37.0859 37.998 39.1739 37.998C40.9526 37.998 42.5379 37.6113 43.9299 36.838C45.3219 36.0647 46.4239 35.0013 47.2359 33.648C48.0479 32.2947 48.4539 30.7287 48.4539 28.95C48.4539 27.21 48.0479 25.6827 47.2359 24.368C46.4626 23.0533 45.3992 22.0287 44.0459 21.294C42.7312 20.5207 41.2426 20.134 39.5799 20.134C37.9559 20.134 36.4092 20.5013 34.9399 21.236C33.4705 21.9707 32.2912 23.0147 31.4019 24.368H26.7619L31.4019 0.819998H51.4119V5.518H35.1719L32.6779 18.626C34.4179 16.6927 36.9312 15.726 40.2179 15.726C42.7699 15.726 45.0512 16.2867 47.0619 17.408C49.1112 18.5293 50.7159 20.076 51.8759 22.048C53.0746 23.9813 53.6739 26.2433 53.6739 28.834C53.6739 31.5407 53.0166 33.938 51.7019 36.026C50.4259 38.0753 48.6859 39.68 46.4819 40.84C44.3166 42 41.8612 42.58 39.1159 42.58Z" fill="#10B582"/>
</svg>
