<svg width="164" height="43" viewBox="0 0 164 43" fill="none" xmlns="http://www.w3.org/2000/svg">
<path d="M0.160188 42C0.160188 37.3987 0.972188 33.7253 2.59619 30.98C4.22019 28.2347 6.44352 26.0113 9.26619 24.31C10.7742 23.4207 12.3209 22.6087 13.9062 21.874C15.4915 21.1393 16.9609 20.366 18.3142 19.554C19.6675 18.742 20.7502 17.7753 21.5622 16.654C22.4129 15.494 22.8382 14.0633 22.8382 12.362C22.8382 10.3513 22.1809 8.63067 20.8662 7.2C19.5902 5.76933 17.5989 5.054 14.8922 5.054C13.0749 5.054 11.4315 5.36333 9.96219 5.982C8.53152 6.60066 7.29419 7.33533 6.25019 8.186C5.20619 9.03666 4.37485 9.84866 3.75619 10.622L0.450188 7.316C0.759521 6.92933 1.30085 6.34933 2.07419 5.576C2.88619 4.80267 3.91085 4.01 5.14819 3.198C6.42419 2.386 7.91285 1.70933 9.61419 1.168C11.3155 0.587997 13.2489 0.297998 15.4142 0.297998C18.3142 0.297998 20.7309 0.839331 22.6642 1.922C24.5975 3.00466 26.0475 4.45466 27.0142 6.272C28.0195 8.08933 28.5222 10.1 28.5222 12.304C28.5222 14.276 28.1549 15.9773 27.4202 17.408C26.6855 18.8 25.7382 19.9793 24.5782 20.946C23.4182 21.9127 22.1422 22.7633 20.7502 23.498C19.3969 24.2327 18.0822 24.9287 16.8062 25.586C14.3702 26.746 12.4369 27.8093 11.0062 28.776C9.57552 29.7427 8.47352 30.69 7.70019 31.618C6.96552 32.5073 6.46285 33.416 6.19219 34.344C5.96019 35.272 5.82485 36.2773 5.78619 37.36H28.5802V42H0.160188ZM66.383 42.58C63.5604 42.5027 61.0664 41.826 58.901 40.55C56.7357 39.274 54.9184 37.6113 53.449 35.562C52.0184 33.474 50.9357 31.2313 50.201 28.834C49.4664 26.398 49.099 24.02 49.099 21.7C49.099 19.2253 49.4857 16.7507 50.259 14.276C51.071 11.8013 52.231 9.55866 53.739 7.548C55.247 5.49867 57.0644 3.87467 59.191 2.676C61.3177 1.43866 63.715 0.819998 66.383 0.819998C69.2444 0.819998 71.7384 1.47733 73.865 2.792C76.0304 4.10666 77.8284 5.808 79.259 7.896C80.7284 9.984 81.8304 12.246 82.565 14.682C83.2997 17.118 83.667 19.4573 83.667 21.7C83.667 24.2133 83.261 26.7073 82.449 29.182C81.6757 31.618 80.535 33.8413 79.027 35.852C77.519 37.8627 75.7017 39.4867 73.575 40.724C71.4484 41.9227 69.051 42.5413 66.383 42.58ZM54.377 21.7C54.4544 23.5947 54.7444 25.4893 55.247 27.384C55.7497 29.2787 56.5037 31.0187 57.509 32.604C58.5144 34.1893 59.7517 35.4653 61.221 36.432C62.6904 37.3987 64.411 37.882 66.383 37.882C68.4324 37.882 70.211 37.3793 71.719 36.374C73.227 35.33 74.4644 33.996 75.431 32.372C76.4364 30.7093 77.171 28.95 77.635 27.094C78.1377 25.1993 78.389 23.4013 78.389 21.7C78.389 19.8053 78.1184 17.9107 77.577 16.016C77.0744 14.1213 76.301 12.3813 75.257 10.796C74.213 9.21066 72.9564 7.93466 71.487 6.968C70.0177 6.00133 68.3164 5.518 66.383 5.518C64.3337 5.518 62.555 6.04 61.047 7.084C59.539 8.08933 58.2824 9.42333 57.277 11.086C56.3104 12.71 55.5757 14.4693 55.073 16.364C54.609 18.22 54.377 19.9987 54.377 21.7ZM106.428 42.58C103.605 42.5027 101.111 41.826 98.946 40.55C96.7806 39.274 94.9633 37.6113 93.494 35.562C92.0633 33.474 90.9806 31.2313 90.246 28.834C89.5113 26.398 89.144 24.02 89.144 21.7C89.144 19.2253 89.5306 16.7507 90.304 14.276C91.116 11.8013 92.276 9.55866 93.784 7.548C95.292 5.49867 97.1093 3.87467 99.236 2.676C101.363 1.43866 103.76 0.819998 106.428 0.819998C109.289 0.819998 111.783 1.47733 113.91 2.792C116.075 4.10666 117.873 5.808 119.304 7.896C120.773 9.984 121.875 12.246 122.61 14.682C123.345 17.118 123.712 19.4573 123.712 21.7C123.712 24.2133 123.306 26.7073 122.494 29.182C121.721 31.618 120.58 33.8413 119.072 35.852C117.564 37.8627 115.747 39.4867 113.62 40.724C111.493 41.9227 109.096 42.5413 106.428 42.58ZM94.422 21.7C94.4993 23.5947 94.7893 25.4893 95.292 27.384C95.7946 29.2787 96.5486 31.0187 97.554 32.604C98.5593 34.1893 99.7966 35.4653 101.266 36.432C102.735 37.3987 104.456 37.882 106.428 37.882C108.477 37.882 110.256 37.3793 111.764 36.374C113.272 35.33 114.509 33.996 115.476 32.372C116.481 30.7093 117.216 28.95 117.68 27.094C118.183 25.1993 118.434 23.4013 118.434 21.7C118.434 19.8053 118.163 17.9107 117.622 16.016C117.119 14.1213 116.346 12.3813 115.302 10.796C114.258 9.21066 113.001 7.93466 111.532 6.968C110.063 6.00133 108.361 5.518 106.428 5.518C104.379 5.518 102.6 6.04 101.092 7.084C99.584 8.08933 98.3273 9.42333 97.322 11.086C96.3553 12.71 95.6206 14.4693 95.118 16.364C94.654 18.22 94.422 19.9987 94.422 21.7ZM146.473 42.58C143.65 42.5027 141.156 41.826 138.991 40.55C136.826 39.274 135.008 37.6113 133.539 35.562C132.108 33.474 131.026 31.2313 130.291 28.834C129.556 26.398 129.189 24.02 129.189 21.7C129.189 19.2253 129.576 16.7507 130.349 14.276C131.161 11.8013 132.321 9.55866 133.829 7.548C135.337 5.49867 137.154 3.87467 139.281 2.676C141.408 1.43866 143.805 0.819998 146.473 0.819998C149.334 0.819998 151.828 1.47733 153.955 2.792C156.12 4.10666 157.918 5.808 159.349 7.896C160.818 9.984 161.92 12.246 162.655 14.682C163.39 17.118 163.757 19.4573 163.757 21.7C163.757 24.2133 163.351 26.7073 162.539 29.182C161.766 31.618 160.625 33.8413 159.117 35.852C157.609 37.8627 155.792 39.4867 153.665 40.724C151.538 41.9227 149.141 42.5413 146.473 42.58ZM134.467 21.7C134.544 23.5947 134.834 25.4893 135.337 27.384C135.84 29.2787 136.594 31.0187 137.599 32.604C138.604 34.1893 139.842 35.4653 141.311 36.432C142.78 37.3987 144.501 37.882 146.473 37.882C148.522 37.882 150.301 37.3793 151.809 36.374C153.317 35.33 154.554 33.996 155.521 32.372C156.526 30.7093 157.261 28.95 157.725 27.094C158.228 25.1993 158.479 23.4013 158.479 21.7C158.479 19.8053 158.208 17.9107 157.667 16.016C157.164 14.1213 156.391 12.3813 155.347 10.796C154.303 9.21066 153.046 7.93466 151.577 6.968C150.108 6.00133 148.406 5.518 146.473 5.518C144.424 5.518 142.645 6.04 141.137 7.084C139.629 8.08933 138.372 9.42333 137.367 11.086C136.4 12.71 135.666 14.4693 135.163 16.364C134.699 18.22 134.467 19.9987 134.467 21.7Z" fill="#10B582"/>
</svg>
