<svg width="165" height="43" viewBox="0 0 165 43" fill="none" xmlns="http://www.w3.org/2000/svg">
<path d="M14.4318 42.522C10.8745 42.522 7.85846 41.6907 5.38379 40.028C2.90912 38.3653 1.38179 36.1613 0.801789 33.416L3.70179 30.342C3.81779 31.4633 4.32046 32.604 5.20979 33.764C6.09912 34.924 7.31712 35.8907 8.86379 36.664C10.4491 37.3987 12.2858 37.766 14.3738 37.766C16.1525 37.766 17.7571 37.476 19.1878 36.896C20.6185 36.2773 21.7591 35.4267 22.6098 34.344C23.4605 33.2613 23.8858 32.0047 23.8858 30.574C23.8858 28.1767 22.7258 26.34 20.4058 25.064C18.1245 23.7493 15.0118 23.092 11.0678 23.092H9.09579V18.742H11.0678C14.6251 18.742 17.4671 18.1813 19.5938 17.06C21.7205 15.9 22.7838 14.1793 22.7838 11.898C22.7838 10.4287 22.3778 9.172 21.5658 8.128C20.7925 7.04533 19.7485 6.23333 18.4338 5.692C17.1578 5.112 15.7851 4.822 14.3158 4.822C11.8411 4.822 9.73379 5.38266 7.99379 6.504C6.29246 7.58666 5.09379 8.86266 4.39779 10.332L0.975789 6.794C1.74912 5.44066 2.83179 4.28066 4.22379 3.314C5.61579 2.34733 7.18179 1.61266 8.92179 1.11C10.6618 0.568664 12.4405 0.297998 14.2578 0.297998C16.9258 0.297998 19.3038 0.800665 21.3918 1.806C23.5185 2.81133 25.1811 4.16466 26.3798 5.866C27.5785 7.56733 28.1778 9.50066 28.1778 11.666C28.1778 14.0247 27.4818 15.9773 26.0898 17.524C24.6978 19.032 22.7258 20.0953 20.1738 20.714C22.9191 21.2167 25.1038 22.454 26.7278 24.426C28.3518 26.3593 29.1638 28.6213 29.1638 31.212C29.1638 33.6093 28.4678 35.6587 27.0758 37.36C25.6838 39.0227 23.8665 40.2987 21.6238 41.188C19.4198 42.0773 17.0225 42.522 14.4318 42.522ZM66.7414 42.58C63.9188 42.5027 61.4248 41.826 59.2594 40.55C57.0941 39.274 55.2768 37.6113 53.8074 35.562C52.3768 33.474 51.2941 31.2313 50.5594 28.834C49.8248 26.398 49.4574 24.02 49.4574 21.7C49.4574 19.2253 49.8441 16.7507 50.6174 14.276C51.4294 11.8013 52.5894 9.55866 54.0974 7.548C55.6054 5.49867 57.4228 3.87467 59.5494 2.676C61.6761 1.43866 64.0734 0.819998 66.7414 0.819998C69.6028 0.819998 72.0968 1.47733 74.2234 2.792C76.3888 4.10666 78.1868 5.808 79.6174 7.896C81.0868 9.984 82.1888 12.246 82.9234 14.682C83.6581 17.118 84.0254 19.4573 84.0254 21.7C84.0254 24.2133 83.6194 26.7073 82.8074 29.182C82.0341 31.618 80.8934 33.8413 79.3854 35.852C77.8774 37.8627 76.0601 39.4867 73.9334 40.724C71.8068 41.9227 69.4094 42.5413 66.7414 42.58ZM54.7354 21.7C54.8128 23.5947 55.1028 25.4893 55.6054 27.384C56.1081 29.2787 56.8621 31.0187 57.8674 32.604C58.8728 34.1893 60.1101 35.4653 61.5794 36.432C63.0488 37.3987 64.7694 37.882 66.7414 37.882C68.7908 37.882 70.5694 37.3793 72.0774 36.374C73.5854 35.33 74.8228 33.996 75.7894 32.372C76.7948 30.7093 77.5294 28.95 77.9934 27.094C78.4961 25.1993 78.7474 23.4013 78.7474 21.7C78.7474 19.8053 78.4768 17.9107 77.9354 16.016C77.4328 14.1213 76.6594 12.3813 75.6154 10.796C74.5714 9.21066 73.3148 7.93466 71.8454 6.968C70.3761 6.00133 68.6748 5.518 66.7414 5.518C64.6921 5.518 62.9134 6.04 61.4054 7.084C59.8974 8.08933 58.6408 9.42333 57.6354 11.086C56.6688 12.71 55.9341 14.4693 55.4314 16.364C54.9674 18.22 54.7354 19.9987 54.7354 21.7ZM106.786 42.58C103.964 42.5027 101.47 41.826 99.3044 40.55C97.139 39.274 95.3217 37.6113 93.8524 35.562C92.4217 33.474 91.339 31.2313 90.6044 28.834C89.8697 26.398 89.5024 24.02 89.5024 21.7C89.5024 19.2253 89.889 16.7507 90.6624 14.276C91.4744 11.8013 92.6344 9.55866 94.1424 7.548C95.6504 5.49867 97.4677 3.87467 99.5944 2.676C101.721 1.43866 104.118 0.819998 106.786 0.819998C109.648 0.819998 112.142 1.47733 114.268 2.792C116.434 4.10666 118.232 5.808 119.662 7.896C121.132 9.984 122.234 12.246 122.968 14.682C123.703 17.118 124.07 19.4573 124.07 21.7C124.07 24.2133 123.664 26.7073 122.852 29.182C122.079 31.618 120.938 33.8413 119.43 35.852C117.922 37.8627 116.105 39.4867 113.978 40.724C111.852 41.9227 109.454 42.5413 106.786 42.58ZM94.7804 21.7C94.8577 23.5947 95.1477 25.4893 95.6504 27.384C96.153 29.2787 96.907 31.0187 97.9124 32.604C98.9177 34.1893 100.155 35.4653 101.624 36.432C103.094 37.3987 104.814 37.882 106.786 37.882C108.836 37.882 110.614 37.3793 112.122 36.374C113.63 35.33 114.868 33.996 115.834 32.372C116.84 30.7093 117.574 28.95 118.038 27.094C118.541 25.1993 118.792 23.4013 118.792 21.7C118.792 19.8053 118.522 17.9107 117.98 16.016C117.478 14.1213 116.704 12.3813 115.66 10.796C114.616 9.21066 113.36 7.93466 111.89 6.968C110.421 6.00133 108.72 5.518 106.786 5.518C104.737 5.518 102.958 6.04 101.45 7.084C99.9424 8.08933 98.6857 9.42333 97.6804 11.086C96.7137 12.71 95.979 14.4693 95.4764 16.364C95.0124 18.22 94.7804 19.9987 94.7804 21.7ZM146.831 42.58C144.009 42.5027 141.515 41.826 139.349 40.55C137.184 39.274 135.367 37.6113 133.897 35.562C132.467 33.474 131.384 31.2313 130.649 28.834C129.915 26.398 129.547 24.02 129.547 21.7C129.547 19.2253 129.934 16.7507 130.707 14.276C131.519 11.8013 132.679 9.55866 134.187 7.548C135.695 5.49867 137.513 3.87467 139.639 2.676C141.766 1.43866 144.163 0.819998 146.831 0.819998C149.693 0.819998 152.187 1.47733 154.313 2.792C156.479 4.10666 158.277 5.808 159.707 7.896C161.177 9.984 162.279 12.246 163.013 14.682C163.748 17.118 164.115 19.4573 164.115 21.7C164.115 24.2133 163.709 26.7073 162.897 29.182C162.124 31.618 160.983 33.8413 159.475 35.852C157.967 37.8627 156.15 39.4867 154.023 40.724C151.897 41.9227 149.499 42.5413 146.831 42.58ZM134.825 21.7C134.903 23.5947 135.193 25.4893 135.695 27.384C136.198 29.2787 136.952 31.0187 137.957 32.604C138.963 34.1893 140.2 35.4653 141.669 36.432C143.139 37.3987 144.859 37.882 146.831 37.882C148.881 37.882 150.659 37.3793 152.167 36.374C153.675 35.33 154.913 33.996 155.879 32.372C156.885 30.7093 157.619 28.95 158.083 27.094C158.586 25.1993 158.837 23.4013 158.837 21.7C158.837 19.8053 158.567 17.9107 158.025 16.016C157.523 14.1213 156.749 12.3813 155.705 10.796C154.661 9.21066 153.405 7.93466 151.935 6.968C150.466 6.00133 148.765 5.518 146.831 5.518C144.782 5.518 143.003 6.04 141.495 7.084C139.987 8.08933 138.731 9.42333 137.725 11.086C136.759 12.71 136.024 14.4693 135.521 16.364C135.057 18.22 134.825 19.9987 134.825 21.7Z" fill="#10B582"/>
</svg>
